<?xml version="1.0" encoding="UTF-8"?>
<svg id="Layer_2" data-name="Layer 2" xmlns="http://www.w3.org/2000/svg" viewBox="0 0 386.53 386.78">
  <defs>
    <style>
      .cls-1 {
        fill: #fefefe;
      }
    </style>
  </defs>
  <g id="Layer_3" data-name="Layer 3">
    <path class="cls-1" d="M285.58,160.15V43.58L210.09,0,4.09,118.94l-4.09,2.37v164.88l75.48,43.59,92.77-53.57v29.41s100.27,57.89,100.27,57.89l38.43,22.19c.25.15.51.26.77.38.06.03.12.06.18.09.44.18.89.32,1.35.42.11.02.22.04.33.07.48.09.97.15,1.46.15,0,0,0,0,0,0,0,0,0,0,0,0,0,0,.01,0,.02,0,.47,0,.94-.06,1.41-.14.13-.02.27-.05.4-.08.44-.1.87-.23,1.28-.4.1-.04.19-.1.29-.14.23-.11.46-.21.68-.34h0s71.39-41.22,71.39-41.22v-126.02l-100.95-58.29ZM41.49,135.81l-16.95-9.79L210.09,18.9l50.94,29.41-185.54,107.12-34-19.62ZM168.26,257.3l-84.59,48.84v-136.54l185.55-107.13v88.23l-25.47-14.7-75.49,43.58v77.72ZM311.05,252.58l-118.24-68.27,50.94-29.41,118.24,68.27-50.94,29.41ZM370.17,335.01l-50.93,29.41v-97.68l50.93-29.41v97.68Z"/>
  </g>
</svg>